# xmcd CD database file
#
# Track frame offsets:
#	150
#	14120
#	34534
#	55604
#	70749
#	87638
#	103458
#	121084
#	143634
#	163396
#	180153
#
# Disc length: 2670 seconds
#
# Revision: 4
# Processed by: cddbd v1.5.2PL0 Copyright (c) Steve Scherf et al.
# Submitted via: CDex 1.72
#
DISCID=930a6c0b
DTITLE=Foster, Ruthie (USA-07-The Phenomeanl R.F.-bls) - The Phenomenal Ruthie Foster
DYEAR=2007
DGENRE=Blues
TTITLE0=Cuz I'm Here
TTITLE1=Heal Yourself
TTITLE2=Fruits of My Labor
TTITLE3=People Grinnin' in Your Face
TTITLE4=Up Above My Head (I Hear Music In the Air)
TTITLE5=Harder Than the Fall
TTITLE6=Beaver Creek Blues
TTITLE7=Mama Said
TTITLE8=Phenomenal Woman
TTITLE9=A Friend Like You
TTITLE10=I Don't Know What to Do with My Heart
EXTD=YEAR: 2007
EXTT0=
EXTT1=
EXTT2=
EXTT3=
EXTT4=
EXTT5=
EXTT6=
EXTT7=
EXTT8=
EXTT9=
EXTT10=
PLAYORDER=
